<svg width="745" height="301" viewBox="0 0 745 301" fill="none" xmlns="http://www.w3.org/2000/svg">
<path d="M588.191 144.267C586.77 144.267 585.618 145.419 585.618 146.841C585.618 148.262 586.77 149.414 588.191 149.414V144.267ZM588.191 149.414H651.415V144.267H588.191V149.414ZM658.107 142.722V82.9703H652.959V142.722H658.107ZM651.415 149.414C655.111 149.414 658.107 146.418 658.107 142.722H652.959C652.959 143.575 652.268 144.267 651.415 144.267V149.414Z" fill="#5E0A8E"/>
<path d="M566.743 171.946C565.322 171.946 564.169 173.098 564.169 174.52C564.169 175.941 565.322 177.094 566.743 177.094V171.946ZM566.743 177.094H718.135V171.946H566.743V177.094ZM724.827 170.402V146.75H719.679V170.402H724.827ZM718.135 177.094C721.831 177.094 724.827 174.098 724.827 170.402H719.679C719.679 171.255 718.988 171.946 718.135 171.946V177.094Z" fill="#5E0A8E"/>
<path d="M562.792 198.925C561.371 198.925 560.218 200.078 560.218 201.499C560.218 202.921 561.371 204.073 562.792 204.073V198.925ZM562.792 204.073H715.525V198.925H562.792V204.073Z" fill="#5E0A8E"/>
<path d="M584.805 226.018C583.383 226.018 582.231 227.17 582.231 228.592C582.231 230.013 583.383 231.165 584.805 231.165V226.018ZM584.805 231.165H660.324V226.018H584.805V231.165ZM661.869 232.71V259.185H667.016V232.71H661.869ZM668.561 265.877H684.775V260.73H668.561V265.877ZM661.869 259.185C661.869 262.881 664.865 265.877 668.561 265.877V260.73C667.708 260.73 667.016 260.038 667.016 259.185H661.869ZM660.324 231.165C661.177 231.165 661.869 231.857 661.869 232.71H667.016C667.016 229.014 664.02 226.018 660.324 226.018V231.165Z" fill="#5E0A8E"/>
<mask id="path-5-inside-1_1579_3323" fill="white">
<path d="M670.405 69.8927C670.405 77.9445 663.877 84.4717 655.826 84.4717C647.774 84.4717 641.247 77.9445 641.247 69.8927C641.247 61.8409 647.774 55.3136 655.826 55.3136C663.877 55.3136 670.405 61.8409 670.405 69.8927ZM647.078 69.8927C647.078 74.7237 650.995 78.6401 655.826 78.6401C660.657 78.6401 664.573 74.7237 664.573 69.8927C664.573 65.0616 660.657 61.1452 655.826 61.1452C650.995 61.1452 647.078 65.0616 647.078 69.8927Z"/>
</mask>
<path d="M670.405 69.8927C670.405 77.9445 663.877 84.4717 655.826 84.4717C647.774 84.4717 641.247 77.9445 641.247 69.8927C641.247 61.8409 647.774 55.3136 655.826 55.3136C663.877 55.3136 670.405 61.8409 670.405 69.8927ZM647.078 69.8927C647.078 74.7237 650.995 78.6401 655.826 78.6401C660.657 78.6401 664.573 74.7237 664.573 69.8927C664.573 65.0616 660.657 61.1452 655.826 61.1452C650.995 61.1452 647.078 65.0616 647.078 69.8927Z" fill="#F45E0C" stroke="#F45E0C" stroke-width="2.25769" mask="url(#path-5-inside-1_1579_3323)"/>
<mask id="path-6-inside-2_1579_3323" fill="white">
<path d="M737.007 132.673C737.007 140.725 730.48 147.252 722.428 147.252C714.376 147.252 707.849 140.725 707.849 132.673C707.849 124.622 714.376 118.094 722.428 118.094C730.48 118.094 737.007 124.622 737.007 132.673ZM713.681 132.673C713.681 137.505 717.597 141.421 722.428 141.421C727.259 141.421 731.176 137.505 731.176 132.673C731.176 127.842 727.259 123.926 722.428 123.926C717.597 123.926 713.681 127.842 713.681 132.673Z"/>
</mask>
<path d="M737.007 132.673C737.007 140.725 730.48 147.252 722.428 147.252C714.376 147.252 707.849 140.725 707.849 132.673C707.849 124.622 714.376 118.094 722.428 118.094C730.48 118.094 737.007 124.622 737.007 132.673ZM713.681 132.673C713.681 137.505 717.597 141.421 722.428 141.421C727.259 141.421 731.176 137.505 731.176 132.673C731.176 127.842 727.259 123.926 722.428 123.926C717.597 123.926 713.681 127.842 713.681 132.673Z" fill="#F45E0C" stroke="#F45E0C" stroke-width="2.25769" mask="url(#path-6-inside-2_1579_3323)"/>
<mask id="path-7-inside-3_1579_3323" fill="white">
<path d="M743.78 200.839C743.78 208.891 737.253 215.418 729.201 215.418C721.149 215.418 714.622 208.891 714.622 200.839C714.622 192.787 721.149 186.26 729.201 186.26C737.253 186.26 743.78 192.787 743.78 200.839ZM720.454 200.839C720.454 205.67 724.37 209.586 729.201 209.586C734.032 209.586 737.949 205.67 737.949 200.839C737.949 196.008 734.032 192.092 729.201 192.092C724.37 192.092 720.454 196.008 720.454 200.839Z"/>
</mask>
<path d="M743.78 200.839C743.78 208.891 737.253 215.418 729.201 215.418C721.149 215.418 714.622 208.891 714.622 200.839C714.622 192.787 721.149 186.26 729.201 186.26C737.253 186.26 743.78 192.787 743.78 200.839ZM720.454 200.839C720.454 205.67 724.37 209.586 729.201 209.586C734.032 209.586 737.949 205.67 737.949 200.839C737.949 196.008 734.032 192.092 729.201 192.092C724.37 192.092 720.454 196.008 720.454 200.839Z" fill="#F45E0C" stroke="#F45E0C" stroke-width="2.25769" mask="url(#path-7-inside-3_1579_3323)"/>
<mask id="path-8-inside-4_1579_3323" fill="white">
<path d="M713.301 262.925C713.301 270.977 706.774 277.505 698.722 277.505C690.67 277.505 684.143 270.977 684.143 262.925C684.143 254.874 690.67 248.346 698.722 248.346C706.774 248.346 713.301 254.874 713.301 262.925ZM689.975 262.925C689.975 267.757 693.891 271.673 698.722 271.673C703.553 271.673 707.47 267.757 707.47 262.925C707.47 258.094 703.553 254.178 698.722 254.178C693.891 254.178 689.975 258.094 689.975 262.925Z"/>
</mask>
<path d="M713.301 262.925C713.301 270.977 706.774 277.505 698.722 277.505C690.67 277.505 684.143 270.977 684.143 262.925C684.143 254.874 690.67 248.346 698.722 248.346C706.774 248.346 713.301 254.874 713.301 262.925ZM689.975 262.925C689.975 267.757 693.891 271.673 698.722 271.673C703.553 271.673 707.47 267.757 707.47 262.925C707.47 258.094 703.553 254.178 698.722 254.178C693.891 254.178 689.975 258.094 689.975 262.925Z" fill="#F45E0C" stroke="#F45E0C" stroke-width="2.25769" mask="url(#path-8-inside-4_1579_3323)"/>
<path d="M627.568 277.696H497.897C491.074 277.696 485.543 272.165 485.543 265.342V98.1189C485.543 93.9494 487.646 90.0613 491.135 87.7792L602.554 14.9139C606.41 12.3921 611.35 12.2256 615.367 14.4822L692.222 57.6538" stroke="#5E0A8E" stroke-width="8.23626" stroke-linecap="round"/>
<path d="M70.924 192.443C72.3503 192.443 73.5627 191.943 74.5611 190.945C75.5596 189.947 76.0588 188.734 76.0588 187.308V164.95H87.826V187.201C87.826 189.84 87.3267 192.336 86.3283 194.689C85.3299 196.971 83.9392 199.004 82.1563 200.787C80.4447 202.498 78.4122 203.853 76.0588 204.852C73.7767 205.85 71.3162 206.349 68.6775 206.349H28.1343C25.139 206.349 22.322 205.779 19.6833 204.638C17.0446 203.497 14.7268 201.963 12.7299 200.038C10.8044 198.041 9.27111 195.723 8.13005 193.085C6.98899 190.446 6.41846 187.629 6.41846 184.634V164.95H18.1856V183.564C18.1856 186.06 19.0414 188.164 20.753 189.875C22.4646 191.587 24.5684 192.443 27.0645 192.443H70.924ZM31.9853 231.381H44.2874V219.079H31.9853V231.381ZM49.8501 231.381H62.1521V219.079H49.8501V231.381ZM40.7572 247.641H53.0593V235.339H40.7572V247.641ZM123.031 204.852C123.031 205.85 122.531 206.349 121.533 206.349H118.431C115.863 206.349 113.439 205.886 111.156 204.959C108.874 203.96 106.877 202.605 105.166 200.894C103.454 199.182 102.099 197.185 101.101 194.903C100.102 192.621 99.6032 190.196 99.6032 187.629V133.072H111.37V187.308C111.37 188.734 111.87 189.947 112.868 190.945C113.866 191.943 115.079 192.443 116.505 192.443H121.533C121.961 192.443 122.317 192.621 122.603 192.978C122.888 193.263 123.031 193.619 123.031 194.047V204.852ZM150.485 206.349C147.918 206.349 145.493 205.85 143.211 204.852C141 203.782 139.075 202.177 137.434 200.038C135.723 202.177 133.726 203.782 131.444 204.852C129.233 205.85 126.844 206.349 124.277 206.349H121.495C120.497 206.349 119.998 205.85 119.998 204.852V194.047C119.998 193.619 120.176 193.263 120.533 192.978C120.818 192.621 121.139 192.443 121.495 192.443H126.416C127.842 192.443 129.055 191.908 130.053 190.838C131.052 189.768 131.551 188.52 131.551 187.094V168.053H143.318V187.201C143.318 188.627 143.817 189.875 144.816 190.945C145.814 191.943 147.026 192.443 148.453 192.443H151.234C152.66 192.443 153.909 192.015 154.978 191.159C156.048 190.303 156.726 189.162 157.011 187.736L160.969 168.373L172.843 170.513L169.634 186.559C169.277 188.057 169.598 189.412 170.597 190.624C171.666 191.837 172.95 192.443 174.448 192.443H182.364V165.164H194.131V193.298C194.131 195.081 193.774 196.793 193.061 198.433C192.419 200.002 191.492 201.393 190.28 202.605C189.139 203.746 187.748 204.673 186.108 205.387C184.539 206.028 182.863 206.349 181.08 206.349H174.448C172.165 206.349 170.026 205.85 168.029 204.852C166.032 203.853 164.321 202.213 162.894 199.931C161.254 202.213 159.364 203.853 157.225 204.852C155.085 205.85 152.839 206.349 150.485 206.349ZM176.159 158.639H163.857V146.337H176.159V158.639ZM158.294 158.639H145.992V146.337H158.294V158.639ZM167.066 142.379H154.764V130.077H167.066V142.379ZM221.464 206.349C218.826 206.349 216.401 205.814 214.19 204.745C211.979 203.604 210.125 202.106 208.628 200.252C207.13 198.398 206.025 196.294 205.311 193.94C204.67 191.516 204.598 189.02 205.097 186.452L206.916 176.717C207.273 174.792 207.95 173.009 208.948 171.369C210.018 169.657 211.266 168.195 212.693 166.983C214.119 165.77 215.724 164.843 217.506 164.201C219.361 163.488 221.286 163.132 223.283 163.132H229.274C231.698 163.132 233.981 163.595 236.12 164.522C238.259 165.449 240.114 166.733 241.683 168.373C243.252 169.942 244.5 171.797 245.427 173.936C246.354 176.076 246.817 178.358 246.817 180.782V192.443H254.306C255.304 192.443 255.803 192.942 255.803 193.94V204.852C255.803 205.85 255.304 206.349 254.306 206.349H246.71C246.71 206.421 246.71 206.599 246.71 206.884C246.71 207.17 246.675 207.526 246.603 207.954C246.176 212.661 244.357 216.904 241.148 220.684C238.01 224.464 233.98 227.209 229.06 228.921L214.404 233.949L210.767 222.716L225.85 217.689C228.56 216.762 230.736 215.264 232.376 213.196C234.087 211.128 234.943 208.667 234.943 205.814V205.066C234.159 205.422 233.196 205.743 232.055 206.028C230.914 206.242 229.773 206.349 228.632 206.349H221.464ZM219.967 192.443H235.05V180.676C235.05 179.534 234.658 178.572 233.874 177.787C233.089 176.931 232.126 176.504 230.985 176.504H222.32C221.322 176.504 220.466 176.824 219.753 177.466C219.04 178.108 218.576 178.928 218.362 179.927L216.651 188.485C216.437 189.483 216.651 190.41 217.292 191.266C218.006 192.05 218.897 192.443 219.967 192.443ZM270.319 158.639H282.621V146.337H270.319V158.639ZM295.886 204.852C295.886 205.208 295.743 205.565 295.458 205.921C295.173 206.207 294.816 206.349 294.388 206.349H286.258C283.976 206.349 281.694 205.743 279.412 204.531C277.13 203.247 275.597 201.749 274.812 200.038C274.313 200.894 273.6 201.714 272.673 202.498C271.746 203.211 270.711 203.889 269.57 204.531C268.501 205.101 267.324 205.565 266.04 205.921C264.828 206.207 263.615 206.349 262.403 206.349H254.273C253.275 206.349 252.775 205.85 252.775 204.852V194.047C252.775 193.619 252.918 193.263 253.203 192.978C253.489 192.621 253.845 192.443 254.273 192.443H263.473C264.899 192.443 266.147 192.015 267.217 191.159C268.287 190.303 268.964 189.162 269.249 187.736L273.207 168.48L284.761 170.513L281.551 186.666C281.195 188.164 281.516 189.519 282.514 190.731C283.513 191.872 284.796 192.443 286.365 192.443H294.388C294.816 192.443 295.173 192.621 295.458 192.978C295.743 193.263 295.886 193.619 295.886 194.047V204.852ZM376.438 187.308C376.438 188.734 376.937 189.947 377.935 190.945C378.934 191.943 380.146 192.443 381.573 192.443H388.205C388.633 192.443 388.989 192.621 389.275 192.978C389.56 193.263 389.703 193.584 389.703 193.94V204.745C389.703 205.173 389.56 205.565 389.275 205.921C388.989 206.207 388.633 206.349 388.205 206.349H383.605C381.109 206.349 378.791 205.921 376.652 205.066C374.512 204.139 372.622 202.891 370.982 201.322C369.342 202.891 367.416 204.139 365.205 205.066C363.066 205.921 360.82 206.349 358.466 206.349H294.388C293.961 206.349 293.604 206.207 293.319 205.921C293.033 205.565 292.891 205.208 292.891 204.852V193.94C292.891 193.512 293.033 193.156 293.319 192.871C293.604 192.514 293.961 192.371 294.388 192.443H360.499C361.568 192.443 362.531 192.05 363.387 191.266C364.243 190.482 364.671 189.483 364.671 188.271V180.676C364.671 179.392 364.207 178.322 363.28 177.466C362.353 176.539 361.247 176.076 359.964 176.076H307.225L298.774 167.946L330.225 131.146L338.676 139.062L318.137 163.239H358.894C361.319 163.239 363.565 163.702 365.633 164.629C367.773 165.556 369.627 166.805 371.196 168.373C372.836 169.942 374.12 171.797 375.047 173.936C375.974 176.076 376.438 178.358 376.438 180.782V187.308ZM406.386 192.443C407.812 192.443 409.024 191.943 410.023 190.945C411.021 189.875 411.52 188.627 411.52 187.201V165.057H423.288V187.201C423.288 189.84 422.788 192.336 421.79 194.689C420.791 196.971 419.401 199.004 417.618 200.787C415.906 202.498 413.874 203.853 411.52 204.852C409.238 205.85 406.778 206.349 404.139 206.349H388.2C387.772 206.349 387.415 206.207 387.13 205.921C386.845 205.565 386.702 205.208 386.702 204.852V194.047C386.702 193.619 386.845 193.263 387.13 192.978C387.415 192.621 387.772 192.443 388.2 192.443H406.386ZM393.121 155.323H405.423V143.021H393.121V155.323ZM410.985 155.323H423.288V143.021H410.985V155.323Z" fill="#5E0A8E"/>
</svg>
