<svg width="72" height="73" viewBox="0 0 72 73" fill="none" xmlns="http://www.w3.org/2000/svg">
<path fill-rule="evenodd" clip-rule="evenodd" d="M37.9982 69.6625L29.6372 53.5255L24.7352 55.9255C19.4162 58.5055 8.58622 37.3525 13.7882 34.5655L18.7322 32.1295L10.4402 15.9385L5.43922 18.4075C-11.6668 27.3235 15.4922 80.1145 32.9882 72.1165C33.2762 71.9875 37.9802 69.6715 37.9982 69.6625ZM52.7042 61.8535L55.8272 66.9835C52.7702 69.0055 49.3862 70.5745 45.7742 71.5945L42.9722 66.1225C46.4972 65.2825 49.7822 63.8185 52.7042 61.8535ZM61.4702 52.7875L67.1162 55.0435C65.0822 58.5295 62.4782 61.6405 59.4362 64.2565L56.2652 59.0485C58.2692 57.2125 60.0242 55.1035 61.4702 52.7875ZM63.5672 48.7795C65.1332 45.1465 66.0002 41.1415 66.0002 36.9385C66.0002 20.3815 52.5572 6.93848 36.0002 6.93848C28.5092 6.93848 21.6572 9.68948 16.3982 14.2345L13.5992 8.76248C19.7492 3.86648 27.5342 0.938477 36.0002 0.938477C55.8692 0.938477 72.0002 17.0695 72.0002 36.9385C72.0002 41.9305 70.9802 46.6855 69.1412 51.0085L63.5672 48.7795ZM53.0342 45.9385H48.7202V41.2885H40.0802V38.3215L47.4602 26.4415H53.0342V37.8715H55.3742V41.2885H53.0342V45.9385ZM37.8242 45.9385H24.0002V43.1815L26.5202 40.9015C30.7802 37.0915 32.8502 34.9015 32.9102 32.6185C32.9102 31.0285 31.9502 29.7685 29.7002 29.7685C28.0202 29.7685 26.5502 30.6085 25.5302 31.3885L24.2402 28.1215C25.7102 27.0115 27.9902 26.1115 30.6302 26.1115C35.0372 26.1115 37.4642 28.6885 37.4642 32.2285C37.4642 35.5015 35.0972 38.1115 32.2802 40.6315L30.4802 42.1315V42.1915H37.8242V45.9385ZM48.7202 37.8715V33.5515C48.7202 32.3785 48.7802 31.1785 48.8702 29.9185H48.7502C48.1202 31.1785 47.6102 32.3185 46.9502 33.5515L44.3402 37.8115V37.8715H48.7202Z" fill="#7933A1"/>
</svg>
