<svg width="72" height="73" viewBox="0 0 72 73" fill="none" xmlns="http://www.w3.org/2000/svg">
<path fill-rule="evenodd" clip-rule="evenodd" d="M15 54.9385H12C10.344 54.9385 9 53.5945 9 51.9385V45.9385H45V18.9385H59.001C62.352 18.9385 63.801 20.6665 64.809 22.2595C66.591 25.0795 69.417 29.5555 71.136 32.3935C71.7 33.3295 72 34.4035 72 35.4985V48.9385C72 52.3015 69.816 54.9385 66 54.9385H63C63 59.9065 58.968 63.9385 54 63.9385C49.032 63.9385 45 59.9065 45 54.9385H33C33 59.9065 28.968 63.9385 24 63.9385C19.032 63.9385 15 59.9065 15 54.9385ZM24 51.3385C25.986 51.3385 27.6 52.9525 27.6 54.9385C27.6 56.9245 25.986 58.5385 24 58.5385C22.014 58.5385 20.4 56.9245 20.4 54.9385C20.4 52.9525 22.014 51.3385 24 51.3385ZM54 51.3385C55.986 51.3385 57.6 52.9525 57.6 54.9385C57.6 56.9245 55.986 58.5385 54 58.5385C52.014 58.5385 50.4 56.9245 50.4 54.9385C50.4 52.9525 52.014 51.3385 54 51.3385ZM24 24.9385H0V18.9385H24V15.9385H9V12.9385C9 11.2825 10.344 9.93848 12 9.93848H39C40.656 9.93848 42 11.2825 42 12.9385V42.9385H9V33.9385H3V27.9385H24V24.9385ZM51 24.9385V33.9385H65.145L60.864 26.4505C60.33 25.5145 59.337 24.9385 58.26 24.9385H51Z" fill="#7933A1"/>
</svg>
