<svg width="72" height="73" viewBox="0 0 72 73" fill="none" xmlns="http://www.w3.org/2000/svg">
<path d="M71.619 30.3685C71.88 29.6155 72 28.8415 72 28.0765C72 25.7665 70.86 23.5345 68.835 22.1335C62.376 17.6575 63.231 18.7825 60.798 11.5045C59.778 8.46548 56.841 6.41348 53.526 6.41348H53.505C45.546 6.44048 46.926 6.86648 40.503 2.35148C39.165 1.40948 37.581 0.938477 36 0.938477C34.419 0.938477 32.835 1.40948 31.494 2.35148C25.026 6.89648 26.436 6.43748 18.492 6.41048H18.471C15.159 6.41048 12.219 8.46548 11.205 11.5015C8.769 18.7975 9.603 17.6695 3.171 22.1335C1.14 23.5405 0 25.7695 0 28.0825C0 28.8445 0.126 29.6155 0.381 30.3685C2.874 37.6525 2.868 36.2545 0.381 43.5085C0.126 44.2615 0 45.0295 0 45.7945C0 48.1045 1.14 50.3365 3.171 51.7435C9.609 56.2135 8.775 55.0825 11.208 62.3725C12.222 65.4115 15.159 67.4635 18.474 67.4635H18.495C26.454 67.4365 25.074 67.0075 31.497 71.5225C32.835 72.4645 34.419 72.9385 36 72.9385C37.581 72.9385 39.165 72.4645 40.506 71.5255C46.929 67.0135 45.543 67.4395 53.508 67.4665H53.529C56.841 67.4665 59.781 65.4115 60.801 62.3755C63.234 55.0945 62.376 56.2195 68.838 51.7465C70.86 50.3395 72 48.1075 72 45.7975C72 45.0355 71.88 44.2615 71.619 43.5085C69.126 36.2245 69.138 37.6195 71.619 30.3685ZM36 62.4385C21.918 62.4385 10.5 51.0205 10.5 36.9385C10.5 22.8565 21.918 11.4385 36 11.4385C50.082 11.4385 61.5 22.8565 61.5 36.9385C61.5 51.0205 50.082 62.4385 36 62.4385ZM32.25 48.8125L21 37.9015L25.647 33.2575L32.25 39.5215L46.353 25.0645L51 29.7085L32.25 48.8125Z" fill="#7933A1"/>
</svg>
